<svg
   style="overflow:hidden"
   data-svgdocument=""
   id="_I1eXFsbbhYlB8yyGb53BH"
   class="fl-svgdocument"
   x="0"
   y="0"
   version="1.1"
   width="223.36"
   height="77.947998"
   xmlnsXlink="http://www.w3.org/1999/xlink"
   xmlns="http://www.w3.org/2000/svg"
   xmlnsSvg="http://www.w3.org/2000/svg">
  <defs
     id="defs7" />
  <path
     id="_pt4dmmnHPiXc1v5Z9Lus0"
     d="m 48.717,9.744 c -16.138,0 -29.23,13.086 -29.23,29.227 0,10.762 8.725,19.487 19.487,19.487 10.761,0 19.484,-8.725 19.487,-19.487 0,-7.168 -5.814,-12.989 -12.991,-12.989 -7.174,0 -12.992,5.821 -12.992,12.991 0,3.591 2.908,6.496 6.496,6.496 3.587,0 6.496,-2.905 6.496,-6.496 h -6.496 c 0,-3.59 2.908,-6.496 6.496,-6.496 3.587,0 6.495,2.906 6.495,6.496 0,7.177 -5.817,12.991 -12.991,12.991 -7.174,0 -12.991,-5.813 -12.991,-12.99 0,-10.758 8.725,-19.487 19.487,-19.487 10.764,0 19.483,8.726 19.487,19.484 v -0.004 0.007 -0.003 C 64.953,53.321 53.323,64.953 38.974,64.953 24.625,64.953 12.991,53.321 12.991,38.971 v 0.003 -0.007 0.004 c 0,-19.728 15.999,-35.723 35.726,-35.723 2.557,0 5.046,0.279 7.45,0.79 C 50.975,1.479 45.152,0 38.974,0 17.451,0 0,17.451 0,38.974 c 0,21.524 17.451,38.974 38.974,38.974 21.523,0 38.974,-17.45 38.974,-38.974 0,-1.008 -0.076,-1.998 -0.152,-2.987 C 76.299,21.248 63.853,9.744 48.717,9.744 Z"
     stroke="none"
     fill="#ffffff"
     stroke-width="1"
     data-uid="o_f11i5cljc_6"
     style="fill:#ffffff" />
  <path
     text="minter"
     text-anchor="start"
     font-size="100px"
     letter-spacing="0"
     side="left"
     offset="0"
     dx="0"
     dy="0"
     space="preserve"
     font-family="Signika"
     font-scale="contain"
     x="0"
     y="0"
     fill="#ffffff"
     data-fl-textpath=""
     id="_KZwpPj0qQZQrMjsukiYYg"
     data-uid="o_f11i5cljc_7"
     d="M 101.438,53.928 V 38.471 c 0,-1.679 -0.239,-2.889 -0.716,-3.629 -0.477,-0.741 -1.226,-1.111 -2.247,-1.111 -1.778,0 -3.555,1.004 -5.333,3.012 v 17.185 c -0.56,0.131 -1.399,0.197 -2.519,0.197 -0.526,0 -1.004,-0.016 -1.432,-0.049 -0.428,-0.033 -0.806,-0.083 -1.135,-0.148 V 29.681 l 0.296,-0.345 h 1.926 c 1.777,0 2.716,1.037 2.814,3.111 2.338,-2.239 4.758,-3.358 7.259,-3.358 2.535,0 4.33,1.218 5.383,3.654 2.7,-2.436 5.317,-3.654 7.852,-3.654 2.074,0 3.654,0.724 4.74,2.173 1.087,1.448 1.63,3.308 1.63,5.58 v 11.851 c 0,2.041 0.263,3.539 0.79,4.494 -0.922,0.724 -1.992,1.086 -3.21,1.086 -1.81,0 -2.716,-1.086 -2.716,-3.259 V 38.422 c 0,-1.679 -0.238,-2.881 -0.716,-3.605 -0.477,-0.724 -1.226,-1.086 -2.247,-1.086 -1.777,0 -3.555,1.004 -5.333,3.012 v 17.185 c -0.329,0.065 -0.716,0.115 -1.16,0.148 -0.445,0.033 -0.914,0.049 -1.408,0.049 -0.461,0 -0.921,-0.016 -1.382,-0.049 -0.461,-0.033 -0.84,-0.083 -1.136,-0.148 z M 133.19,33.78 v 20.148 c -0.625,0.131 -1.473,0.197 -2.543,0.197 -1.07,0 -1.918,-0.066 -2.543,-0.197 V 35.854 c 0,-0.922 -0.165,-1.58 -0.494,-1.975 -0.329,-0.395 -0.889,-0.593 -1.679,-0.593 h -0.543 c -0.165,-0.724 -0.247,-1.333 -0.247,-1.827 0,-0.494 0.082,-1.119 0.247,-1.876 1.086,-0.132 2.123,-0.198 3.111,-0.198 h 0.691 c 1.251,0 2.231,0.395 2.938,1.185 0.708,0.79 1.062,1.86 1.062,3.21 z m -6.173,-8.839 c -0.296,-0.593 -0.444,-1.317 -0.444,-2.173 0,-1.35 0.247,-2.148 0.741,-2.395 0.494,-0.247 1.317,-0.387 2.469,-0.42 1.317,0.033 2.156,0.198 2.518,0.494 0.362,0.296 0.56,1.07 0.593,2.321 -0.033,1.185 -0.231,1.942 -0.593,2.271 -0.362,0.33 -1.201,0.511 -2.518,0.544 -1.284,0 -2.206,-0.214 -2.766,-0.642 z m 33.234,12.246 v 11.506 c 0,1.942 0.28,3.44 0.84,4.494 -0.856,0.724 -1.86,1.086 -3.013,1.086 -1.119,0 -1.884,-0.271 -2.296,-0.815 -0.411,-0.543 -0.617,-1.358 -0.617,-2.444 V 38.471 c 0,-1.712 -0.222,-2.93 -0.667,-3.654 -0.444,-0.724 -1.21,-1.086 -2.296,-1.086 -1.086,0 -2.198,0.271 -3.333,0.814 -1.136,0.544 -2.132,1.293 -2.988,2.247 v 17.136 c -0.56,0.131 -1.399,0.197 -2.518,0.197 -0.527,0 -1.004,-0.016 -1.432,-0.049 -0.428,-0.033 -0.807,-0.083 -1.136,-0.148 V 29.632 l 0.296,-0.296 h 1.926 c 1.778,0 2.716,1.02 2.815,3.061 2.403,-2.205 5.02,-3.308 7.851,-3.308 2.206,0 3.852,0.732 4.939,2.197 1.086,1.465 1.629,3.432 1.629,5.901 z m 13.432,-7.555 6.074,-0.148 c 0.164,0.559 0.247,1.201 0.247,1.926 0,0.724 -0.083,1.349 -0.247,1.876 l -6.074,-0.099 v 14.765 c 0,1.449 0.675,2.173 2.024,2.173 h 3.408 c 0.263,0.724 0.395,1.457 0.395,2.198 0,0.74 -0.033,1.226 -0.099,1.456 -1.909,0.231 -3.753,0.346 -5.531,0.346 -3.456,0 -5.185,-1.695 -5.185,-5.086 V 33.237 l -3.654,0.049 c -0.132,-0.56 -0.197,-1.177 -0.197,-1.852 0,-0.675 0.065,-1.325 0.197,-1.95 l 3.654,0.099 v -4.346 c 0,-1.185 0.198,-2.025 0.593,-2.518 0.395,-0.494 1.103,-0.741 2.123,-0.741 h 1.926 l 0.346,0.345 z M 202.67,43.36 h -14.518 c 0.098,2.271 0.584,4.016 1.456,5.234 0.873,1.218 2.346,1.827 4.42,1.827 0.988,0 2.049,-0.148 3.185,-0.444 1.136,-0.296 2.313,-0.774 3.531,-1.432 0.823,0.757 1.366,1.844 1.629,3.259 -2.633,1.844 -5.728,2.766 -9.283,2.766 -1.877,0 -3.457,-0.33 -4.741,-0.988 -1.284,-0.659 -2.329,-1.564 -3.136,-2.716 -0.806,-1.152 -1.391,-2.527 -1.753,-4.123 -0.362,-1.597 -0.543,-3.317 -0.543,-5.161 0,-1.81 0.231,-3.498 0.691,-5.061 0.461,-1.564 1.12,-2.906 1.976,-4.025 0.856,-1.119 1.917,-2 3.185,-2.642 1.267,-0.642 2.691,-0.963 4.271,-0.963 1.581,0 2.988,0.264 4.222,0.79 1.235,0.527 2.28,1.26 3.136,2.198 0.856,0.938 1.506,2.057 1.951,3.358 0.444,1.3 0.666,2.707 0.666,4.222 0,0.658 -0.024,1.308 -0.074,1.95 -0.049,0.642 -0.14,1.293 -0.271,1.951 z m -9.482,-10.666 c -3.127,0 -4.806,2.32 -5.036,6.962 h 9.975 v -0.642 c 0,-1.876 -0.404,-3.399 -1.21,-4.567 -0.807,-1.169 -2.05,-1.753 -3.729,-1.753 z m 14.716,-0.791 c 0.329,-1.218 0.955,-2.123 1.877,-2.716 2.271,0.494 3.769,1.959 4.493,4.395 1.317,-2.93 3.473,-4.395 6.469,-4.395 0.79,0 1.663,0.099 2.617,0.297 0,1.909 -0.411,3.522 -1.234,4.839 -0.296,-0.099 -0.971,-0.181 -2.025,-0.247 -2.238,0 -4,1.251 -5.283,3.753 v 16.099 c -0.626,0.131 -1.474,0.197 -2.544,0.197 -1.07,0 -1.917,-0.066 -2.543,-0.197 V 36.99 c 0,-2.239 -0.609,-3.934 -1.827,-5.087 z"
     xlinkHref=""
     style="fill:#ffffff" />
</svg>
